<svg width="32" height="32" viewBox="0 0 32 32" fill="none" xmlns="http://www.w3.org/2000/svg">
<path d="M2.66663 6V27.3333H29.3333V20.6667C28.8759 20.6667 28.4244 20.6393 27.9817 20.586L27.9583 20.5808C27.5343 20.5301 27.1163 20.4566 26.7057 20.3646C22.199 19.3499 18.6421 15.7892 17.6328 11.2812C17.5421 10.8759 17.4699 10.4603 17.4193 10.0417L17.414 10.0182C17.3607 9.57422 17.3333 9.124 17.3333 8.66666H16L13.3333 6H2.66663ZM20 8.66666C20 13.8058 24.1942 18 29.3333 18V15.3333C25.6351 15.3333 22.6667 12.3649 22.6667 8.66669L20 8.66666ZM25.3333 8.66666C25.3333 10.8599 27.14 12.6667 29.3333 12.6667V10C28.5799 10 28 9.42003 28 8.66666H25.3333Z" fill="currentColor"/>
</svg>
