<svg width="32" height="32" viewBox="0 0 32 32" fill="none" xmlns="http://www.w3.org/2000/svg">
<path d="M18.6667 3.33328L2.66666 5.99994V27.3333L18.6667 29.9999V3.33328ZM20 9.99997V13L22.6667 14.5416L28 11.4583V13.5833L22.6667 16.6666L20 15.125V20.6666H21.7917C22.5417 19.0937 24.1406 18 26 18C27.3021 18 28.4844 18.5156 29.3333 19.375C29.3333 19.3541 29.3333 19.3541 29.3333 19.3333V11.3333C29.3333 10.5312 28.8021 9.99997 28 9.99997H20ZM10.125 11.3333C11.4844 11.3333 12.5677 11.8281 13.4167 12.7916C14.2552 13.7552 14.6667 15.0104 14.6667 16.5833C14.6667 18.1979 14.2552 19.552 13.375 20.5416C12.5104 21.5312 11.3594 22 9.95834 22C8.58856 22 7.47397 21.5052 6.625 20.5416C5.76041 19.5781 5.33334 18.3385 5.33334 16.7916C5.33334 15.1614 5.74481 13.8385 6.625 12.8333C7.50519 11.8281 8.68228 11.3333 10.125 11.3333ZM10.0417 13.3333C9.28644 13.3333 8.6875 13.6406 8.25 14.2499C7.8125 14.8593 7.58334 15.6614 7.58334 16.6666C7.58334 17.6978 7.8125 18.526 8.25 19.1249C8.6875 19.7239 9.27084 19.9999 10 19.9999C10.7396 19.9999 11.3229 19.6927 11.75 19.1249C12.1875 18.5416 12.4167 17.7395 12.4167 16.7083C12.4167 15.651 12.2031 14.8333 11.7917 14.2499C11.3698 13.651 10.7708 13.3333 10.0417 13.3333ZM26 19.3333C24.1562 19.3333 22.6667 20.8229 22.6667 22.6666C22.6667 24.5104 24.1562 26 26 26C27.8438 26 29.3333 24.5104 29.3333 22.6666C29.3333 20.8229 27.8438 19.3333 26 19.3333ZM25.3333 20.6666H26.6667V22H28V23.3333H25.3334L25.3333 20.6666Z" fill="currentColor"/>
</svg>
