<svg width="32" height="32" viewBox="0 0 32 32" fill="none" xmlns="http://www.w3.org/2000/svg">
<path d="M15.9995 3.33331C11.7326 3.33331 8.39963 6.49975 8.39963 10.5535V11.8199H5.86666V28.6666H26.1333V11.8199H10.9336V10.6798C10.9336 8.39978 12.5336 6.37338 14.8005 5.86606C17.7335 5.23238 20.4004 7.00609 21.0674 9.66616L23.6004 9.15981C22.6674 5.73972 19.5994 3.33331 15.9995 3.33331ZM15.8665 18.1537C17.1995 18.1537 18.3995 19.2937 18.3995 20.5601C18.3995 21.8265 17.1995 22.9665 15.8665 22.9665C14.5335 22.9665 13.3335 21.8265 13.3335 20.5601C13.3335 19.2937 14.4005 18.1537 15.8665 18.1537Z" fill="currentColor"/>
</svg>
