<svg width="32" height="32" viewBox="0 0 32 32" fill="none" xmlns="http://www.w3.org/2000/svg">
<path d="M22.5766 1.25C24.8437 1.25 26.672 3.15143 26.672 5.3454C26.672 7.6125 24.8437 9.44081 22.5766 9.44081C22.2451 9.44081 21.9229 9.40168 21.6145 9.32787L20.6253 11.0497H21.4064V15.2914H25.7689C26.1382 13.9883 27.3141 13.0473 28.7402 13.0247L28.7928 13.0243C30.548 13.0243 31.9375 14.4138 31.9375 16.1689C31.9375 17.9241 30.548 19.3136 28.7928 19.3136C27.4809 19.3136 26.3732 18.5373 25.8975 17.4122H21.4064V21.5807H20.4844L21.508 23.3422C21.7575 23.2901 22.0171 23.2628 22.2841 23.2628C24.3318 23.2628 25.9407 24.8717 25.9407 26.9194C25.9407 28.9671 24.3318 30.576 22.2841 30.576C20.2364 30.576 18.6274 28.8939 18.6274 26.9194C18.6274 25.9142 19.0151 25.0148 19.6521 24.3596L18.0549 21.5807H14.4152L12.4781 24.9514C12.8214 25.3942 13.0392 25.9489 13.0694 26.5537C13.0694 28.0164 11.8993 29.1865 10.4366 29.1865C8.974 29.1865 7.80387 28.0164 7.80387 26.5537C7.80387 25.0911 8.974 23.921 10.4366 23.921C10.499 23.921 10.5609 23.9233 10.6223 23.9279L11.9862 21.5807H10.8754V17.4122H9.54519C9.33363 18.2081 8.91963 18.9192 8.34525 19.5034L8.31581 19.5331C7.43819 20.4106 6.26813 20.9226 4.95172 20.9226C3.63531 20.9226 2.46522 20.4106 1.5145 19.6062C0.636906 18.7286 0.125 17.5585 0.125 16.2421C0.125 14.9257 0.636937 13.7556 1.5145 12.878C2.39209 12.0004 3.56219 11.4885 4.87859 11.4885C6.195 11.4885 7.36506 12.0004 8.24269 12.878C8.9025 13.5378 9.35563 14.3631 9.53988 15.2914H10.8754V11.0497H12.0594L10.5452 8.444C10.3677 8.47431 10.1849 8.49006 9.99788 8.49006C8.24269 8.49006 6.85319 7.10056 6.85319 5.3454C6.85319 3.59025 8.24269 2.20071 9.99788 2.20071C11.753 2.20071 13.1425 3.59021 13.1425 5.3454C13.1425 6.12859 12.8659 6.83893 12.4035 7.38556L14.4912 11.0497H18.1142L19.6993 8.26375C18.9467 7.52175 18.4812 6.48943 18.4812 5.3454C18.4812 3.07831 20.3095 1.25 22.5766 1.25ZM19.505 12.9511H12.7769V19.6793H19.505V12.9511ZM5.02484 13.6825C4.29353 13.6825 3.70847 13.975 3.19653 14.4138C2.75775 14.8526 2.46522 15.5107 2.46522 16.2421C2.46522 16.9734 2.75775 17.5585 3.19653 18.0704C3.63531 18.5092 4.2935 18.8017 5.02484 18.8017C5.75619 18.8017 6.34125 18.5092 6.85319 18.0704C7.28463 17.6389 7.57469 16.9953 7.58425 16.2786L7.5845 16.2421L7.58419 16.2037C7.57419 15.4902 7.28425 14.9167 6.85319 14.4138C6.41438 13.975 5.75619 13.6825 5.02484 13.6825ZM22.5766 3.37084C21.4796 3.37084 20.602 4.24843 20.602 5.3454C20.602 6.44237 21.4796 7.32 22.5766 7.32C23.6736 7.32 24.5511 6.44237 24.5511 5.3454C24.5511 4.24843 23.6736 3.37084 22.5766 3.37084Z" fill="currentColor"/>
</svg>
